<svg xmlns="http://www.w3.org/2000/svg" width="24" height="24" viewBox="0 0 24 24" fill="none" stroke="currentColor" stroke-width="1.5" stroke-linecap="round" stroke-linejoin="round">
  <!-- 왼쪽 천사 날개 -->
  <path d="M12 15C10 13 7 10 3 8c-.5-.3-1.2-.3-1.8.2C.5 8.8.5 10 1 11c1 2 3 4 5 5.5 1.5 1.2 3.5 2 6 2.5"/>
  <path d="M12 15C10.5 12.5 8 9.5 4.5 7c-.4-.3-1-.2-1.3.3-.3.5-.1 1 .3 1.3C6 10.5 9 13 11 15"/>
  <path d="M12 15C11 12 9 9 5.5 6.5"/>
  <!-- 오른쪽 천사 날개 -->
  <path d="M12 15c2-2 5-5 9-7 .5-.3 1.2-.3 1.8.2.7.6.7 1.8.2 2.8-1 2-3 4-5 5.5-1.5 1.2-3.5 2-6 2.5"/>
  <path d="M12 15c1.5-2.5 4-5.5 7.5-8 .4-.3 1-.2 1.3.3.3.5.1 1-.3 1.3C18 10.5 15 13 13 15"/>
  <path d="M12 15c1-3 3-6 6.5-8.5"/>
  <!-- 중앙 연결 (후광 느낌) -->
  <circle cx="12" cy="5" r="2"/>
</svg>